<?xml version="1.0" encoding="UTF-8" standalone="no"?>
<!-- Created with Inkscape (http://www.inkscape.org/) -->

<svg
   width="512"
   height="512"
   viewBox="0 0 135.46666 135.46667"
   version="1.1"
   id="svg1"
   xml:space="preserve"
   xmlns="http://www.w3.org/2000/svg"
   xmlns:svg="http://www.w3.org/2000/svg"><defs
     id="defs1" /><g
     id="layer1"><rect
       style="fill:#ffffff;stroke-width:0.211666;stroke-linecap:round;stroke-linejoin:round;stroke-dasharray:1.69334, 1.69334"
       id="rect1"
       width="135.46666"
       height="135.46666"
       x="0"
       y="0" /><g
       id="g1"
       transform="matrix(0.64292277,0,0,0.64292277,-168.39118,-144.34406)"><path
         style="fill:#ece44b"
         d="m 335.29647,384.40134 c -2.72607,-1.30926 -4.26706,-3.111 -5.30574,-6.20354 -0.5147,-1.53247 -0.60785,-2.1263 -0.39569,-2.52272 0.15261,-0.28516 0.27747,-0.83197 0.27747,-1.21515 0,-0.56306 -0.096,-0.6662 -0.50066,-0.53777 -0.42567,0.1351 -0.54773,-0.0505 -0.81478,-1.23894 -0.17276,-0.76882 -0.48321,-1.84666 -0.68988,-2.3952 -0.21798,-0.57854 -0.36488,-1.85621 -0.34984,-3.0427 0.0143,-1.12495 -0.16261,-2.81928 -0.39305,-3.76516 -0.23043,-0.94589 -0.42857,-2.67229 -0.44031,-3.83646 -0.0323,-3.20494 -0.5878,-6.62596 -1.21378,-7.47524 -0.29466,-0.39976 -1.10249,-1.03772 -1.79517,-1.41768 -1.84974,-1.01463 -2.57344,-1.88494 -4.37154,-5.25713 -0.89082,-1.67065 -1.91119,-3.34183 -2.2675,-3.71373 -0.73315,-0.76524 -1.13123,-2.21619 -0.68389,-2.49266 0.35172,-0.21738 0.37718,-1.45532 0.0409,-1.98692 -0.29076,-0.45957 0.19887,-1.74746 1.13688,-2.99039 1.00261,-1.32853 1.26382,-2.63496 0.82338,-4.11807 -0.204,-0.68697 -0.54478,-1.4851 -0.75728,-1.77361 -0.38281,-0.51974 -0.39151,-0.51909 -0.94438,0.0707 -0.30691,0.32742 -0.66683,0.59531 -0.79984,0.59531 -0.43325,0 -1.58964,-0.60831 -1.58964,-0.83622 0,-0.12216 -0.15632,-0.22211 -0.34738,-0.22211 -0.46406,0 -1.52129,-1.21378 -2.16646,-2.48728 -0.52562,-1.03751 -1.65181,-1.74605 -2.77524,-1.74605 -0.29897,0 -1.06025,-0.47625 -1.69173,-1.05834 -1.03766,-0.95648 -1.28278,-1.05833 -2.54694,-1.05833 -1.15616,0 -1.77059,-0.20353 -3.54229,-1.17338 -3.1802,-1.74087 -3.19035,-1.75121 -3.22023,-3.27976 -0.016,-0.81937 -0.21608,-1.61232 -0.52342,-2.07461 -0.27362,-0.41156 -0.46908,-0.98642 -0.43436,-1.27746 0.23887,-2.00212 2.3862,-8.73459 3.90799,-12.25266 1.66561,-3.85052 4.96138,-9.94723 6.46357,-11.95671 0.38075,-0.50933 1.5777,-2.11518 2.6599,-3.56858 1.97922,-2.6581 4.0769,-5.0166 6.97188,-7.83874 1.47796,-1.44078 1.63417,-1.52371 2.81926,-1.49672 1.01024,0.023 1.42458,-0.11446 2.12734,-0.70579 l 0.87275,-0.73436 0.46779,0.57769 c 0.54115,0.6683 0.89729,0.54872 1.07092,-0.35958 0.14366,-0.75151 -0.20262,-1.48434 -0.70139,-1.48434 -0.19324,0 -0.50393,-0.18387 -0.69044,-0.4086 -0.28406,-0.34227 -0.24122,-0.47717 0.26392,-0.83099 0.90244,-0.63209 2.42917,-0.65843 2.58967,-0.0447 0.16523,0.63184 0.23127,0.62159 1.18933,-0.18456 0.44125,-0.37129 1.05254,-0.63918 1.3584,-0.59531 0.62434,0.0895 0.94955,1.00581 0.357,1.00581 -0.20659,0 -0.75111,0.18731 -1.21003,0.41625 -0.99726,0.4975 -1.14051,1.60596 -0.30523,2.36187 0.29104,0.26339 0.52917,0.63903 0.52917,0.83476 0,0.50101 0.34676,0.44321 1.15494,-0.1925 0.77885,-0.61265 0.89841,-1.16987 0.30027,-1.3994 -0.65027,-0.24953 -0.45259,-1.13331 0.41717,-1.86517 0.76566,-0.64426 0.98369,-0.68498 3.66779,-0.68498 2.77247,0 2.88217,0.0226 3.85254,0.79375 0.54934,0.43656 1.2021,0.79375 1.45058,0.79375 0.59118,0 1.25607,0.76099 1.36956,1.56751 0.0535,0.38 0.41382,0.82275 0.88402,1.08619 0.75576,0.42343 0.86108,0.78019 0.5249,1.77807 -0.1326,0.39363 -1.34942,0.44447 -1.58323,0.0661 -0.0899,-0.14552 -0.33725,-0.26459 -0.54958,-0.26459 -0.28893,0 -0.36821,0.28292 -0.31512,1.12448 0.0645,1.02175 0.0105,1.13284 -0.59051,1.21598 -0.3638,0.0503 -0.78805,0.19527 -0.94277,0.32211 -0.51453,0.42181 -2.16973,-0.0548 -2.92385,-0.84196 -0.52404,-0.54699 -0.98408,-0.76227 -1.62889,-0.76227 -1.28689,0 -0.95593,-0.64095 0.38256,-0.74085 1.42969,-0.10672 2.99739,-1.37195 2.58118,-2.08317 -0.43787,-0.74824 -2.11321,-1.47717 -2.96503,-1.29008 -0.44164,0.097 -1.10413,0.63407 -1.65475,1.34149 -0.66286,0.85162 -1.23899,1.27714 -2.07153,1.52998 l -1.1533,0.35026 0.7067,0.46305 c 0.92207,0.60416 0.73863,1.11561 -0.35963,1.00269 -0.67945,-0.0699 -0.88569,0.0229 -0.99696,0.44838 -0.11872,0.454 -0.21748,0.48826 -0.64243,0.22288 -0.27617,-0.17247 -0.50213,-0.52307 -0.50213,-0.77911 0,-0.25604 -0.18629,-0.46552 -0.41397,-0.46552 -0.95058,0 -6.28752,2.72017 -6.98439,3.55986 -0.39035,0.47033 -0.0794,2.26097 0.39259,2.26097 0.18902,0 1.0985,0.35709 2.02107,0.79354 0.92258,0.43645 1.8895,0.79364 2.14873,0.79375 0.62437,2.8e-4 0.83389,0.61463 0.45259,1.3271 -0.46177,0.86283 -0.11553,1.9021 0.59939,1.79914 0.41656,-0.06 0.69234,-0.41153 0.9849,-1.25546 0.29544,-0.85227 0.58675,-1.22039 1.06744,-1.34895 1.27733,-0.34161 2.37103,-1.06632 2.49149,-1.65091 0.0669,-0.32478 0.19908,-1.18581 0.29368,-1.91342 0.0946,-0.7276 0.3649,-1.65034 0.60066,-2.05052 0.37299,-0.6331 0.59355,-0.7276 1.69824,-0.7276 0.8679,0 1.56036,0.18835 2.18864,0.59531 0.77826,0.50411 0.91956,0.74731 0.92233,1.5875 0.003,0.86376 0.0837,0.99219 0.62425,0.99219 0.34153,0 0.89553,-0.23813 1.23111,-0.52917 0.33557,-0.29104 0.82464,-0.52917 1.08683,-0.52917 0.47446,0 0.50184,0.0839 0.91435,2.80381 0.0817,0.53869 0.3446,0.91981 0.76735,1.11243 0.35368,0.16115 0.82952,0.57757 1.05741,0.92537 0.37735,0.57592 0.37482,0.75474 -0.0285,2.00337 -0.43467,1.3459 -0.43232,1.38075 0.12882,1.90353 0.38001,0.35402 0.5716,0.84982 0.5716,1.47912 0,0.8625 -0.0529,0.92943 -0.59531,0.75341 -0.32742,-0.10626 -1.03723,-0.25128 -1.57736,-0.32227 -1.53819,-0.20218 -1.74528,-0.68813 -0.76772,-1.80151 1.25311,-1.42721 1.08639,-1.80338 -0.45783,-1.03302 -0.45854,0.22875 -1.12654,0.37757 -1.48445,0.33073 -0.40405,-0.0529 -0.78725,0.10148 -1.0108,0.40719 -0.33106,0.45272 -0.39436,0.45804 -0.78626,0.0661 -0.46658,-0.46658 -1.40255,-0.56952 -1.64287,-0.18068 -0.0835,0.13504 0.0881,0.32166 0.38126,0.41471 0.55428,0.17592 0.7293,1.0393 0.26843,1.32413 -0.14552,0.0899 -0.26459,0.46666 -0.26459,0.83716 0,0.62634 0.0743,0.66655 1.05834,0.5727 0.58208,-0.0555 1.05833,-10e-4 1.05833,0.12012 0,0.12157 0.14883,0.13402 0.33073,0.0277 0.1819,-0.10637 0.11361,0.0545 -0.15176,0.35746 -0.26537,0.30297 -0.80116,0.63027 -1.19063,0.72734 -0.38947,0.0971 -1.111,0.36703 -1.6034,0.5999 -0.82745,0.39133 -0.91986,0.38978 -1.2198,-0.0204 -0.41521,-0.56785 -0.60065,-0.5587 -2.09754,0.10344 -0.84834,0.37527 -1.36407,0.8134 -1.64097,1.39405 -0.27324,0.573 -0.76578,0.99651 -1.52332,1.30983 -1.60257,0.66283 -3.63529,2.79939 -3.71157,3.90118 -0.0639,0.9228 -0.17231,1.0328 -3.00875,3.05243 -2.08652,1.48567 -2.32962,1.98628 -1.98965,4.09731 0.21949,1.36289 0.19782,1.64571 -0.13593,1.77378 -0.5172,0.19847 -1.63658,-1.09663 -1.63658,-1.8935 0,-0.4729 -0.22311,-0.67167 -1.02288,-0.91129 -1.45182,-0.43497 -3.07862,-0.38723 -3.48487,0.10227 -0.27323,0.32922 -0.68421,0.37474 -2.1125,0.234 l -1.77328,-0.17473 -1.1796,1.15506 c -1.01935,0.99816 -1.24648,1.43086 -1.67201,3.18535 -0.42398,1.74816 -0.44566,2.18631 -0.15601,3.15308 0.89327,2.98149 3.64677,3.51034 4.95729,0.95214 0.53188,-1.03825 0.81028,-1.23149 1.7816,-1.23666 l 0.76169,-0.004 -0.1827,1.38906 c -0.10048,0.76398 -0.29441,1.50217 -0.43096,1.64042 -0.13655,0.13824 -0.24827,0.64426 -0.24827,1.12448 0,0.86028 0.0178,0.87312 1.20802,0.87312 0.66441,0 1.45127,0.13018 1.74857,0.28929 0.49545,0.26516 0.52562,0.44846 0.36172,2.19754 -0.19962,2.13028 0.0755,3.07848 1.04347,3.59653 0.44408,0.23766 0.74019,0.24518 1.14401,0.0291 0.70432,-0.37694 1.71528,-0.37303 2.09643,0.008 0.4572,0.4572 1.04107,0.0979 1.53606,-0.9452 0.24586,-0.51811 0.59844,-0.94202 0.7835,-0.94202 0.18507,0 0.66796,-0.17196 1.07309,-0.38215 0.53356,-0.27681 0.87579,-0.30766 1.24154,-0.11192 0.27772,0.14863 0.68624,0.20067 0.90782,0.11564 0.22159,-0.085 0.83736,0.0784 1.36839,0.36318 0.66161,0.35481 1.61913,0.54483 3.04208,0.60371 1.70868,0.0707 2.1413,0.17852 2.44195,0.60863 0.20095,0.28749 1.05244,1.20626 1.89218,2.0417 1.33819,1.33136 1.65551,1.51929 2.56876,1.52136 1.45341,0.003 2.6713,0.90217 3.39376,2.50482 1.30684,2.89901 1.3039,2.89548 2.81944,3.38092 0.78888,0.25268 1.68185,0.68398 1.98437,0.95845 0.51849,0.47039 1.13022,0.67309 2.88211,0.955 0.4095,0.0659 1.23663,0.48169 1.83806,0.92399 0.60143,0.4423 1.24,0.80417 1.41905,0.80417 0.62007,0 1.42229,1.36324 1.42229,2.41694 0,0.56245 -0.11906,1.02265 -0.26458,1.02265 -0.14552,0 -0.26459,0.22207 -0.26459,0.49348 0,0.27142 -0.22129,0.77744 -0.49175,1.12448 -1.14205,1.46542 -1.42521,2.41515 -1.5088,5.06066 -0.0867,2.74253 -0.61799,4.8824 -1.38381,5.57319 -0.24865,0.22429 -1.12051,0.65751 -1.93746,0.96271 -1.98444,0.74135 -2.26501,1.12147 -2.41978,3.27837 -0.0885,1.23259 -0.29743,2.03529 -0.65625,2.52062 -0.28956,0.39166 -0.79384,1.44536 -1.12061,2.34157 -0.64124,1.75865 -0.81546,1.91112 -2.08335,1.82335 -0.93764,-0.0649 -1.01018,0.15689 -0.42088,1.28703 0.6449,1.23676 0.31862,1.88319 -1.20615,2.38964 -1.18543,0.39374 -1.32324,0.51996 -1.32324,1.212 0,0.4962 -0.13636,0.77248 -0.38126,0.77248 -0.61504,0 -0.79696,0.5809 -0.29652,0.94683 0.43604,0.31884 0.42939,0.42753 -0.12085,1.97733 l -0.58225,1.63996 0.74159,0.59131 0.74158,0.59132 -0.3522,1.46815 c -0.33056,1.37791 -0.31691,1.52525 0.22198,2.3972 0.3158,0.51097 0.99559,1.17768 1.51065,1.48157 0.60739,0.35838 0.90576,0.71444 0.84909,1.01329 -0.13704,0.72266 -1.25119,0.65506 -2.99327,-0.18161 z m 47.47247,-17.81233 c -0.0111,-0.0364 -0.0638,-0.30427 -0.11694,-0.59531 -0.0532,-0.29104 -0.17372,-0.94588 -0.26788,-1.45521 -0.0942,-0.50932 -0.49283,-1.52135 -0.88594,-2.24896 -0.83822,-1.55147 -1.21709,-2.71451 -1.76612,-5.42148 -0.22109,-1.09005 -0.69524,-2.62249 -1.05368,-3.40542 -0.85383,-1.86501 -0.85161,-3.5234 0.007,-5.36818 0.77469,-1.66412 0.79233,-1.98106 0.25981,-4.66763 -0.50723,-2.55894 -0.71074,-3.03463 -2.03469,-4.75582 l -1.07191,-1.39354 0.30021,-1.49486 c 0.63127,-3.14332 0.33582,-3.78786 -1.73632,-3.78786 -0.79257,0 -1.06982,-0.12812 -1.27417,-0.58882 -0.14364,-0.32385 -0.56093,-0.75542 -0.92729,-0.95905 -0.6008,-0.33392 -0.84729,-0.29689 -2.51354,0.37764 -1.34103,0.54287 -2.21461,0.72981 -3.18697,0.682 -0.73675,-0.0362 -1.84433,0.0476 -2.4613,0.18619 -1.11556,0.25065 -1.13175,0.24342 -2.93085,-1.30887 -0.99501,-0.8585 -1.88442,-1.86101 -1.97648,-2.22779 -0.092,-0.36677 -0.77339,-1.33606 -1.51409,-2.15396 l -1.34672,-1.48709 0.20035,-1.48565 c 0.11019,-0.8171 0.22371,-2.7358 0.25227,-4.26377 0.051,-2.72785 0.0722,-2.81519 1.17453,-4.82711 0.75848,-1.38439 1.58819,-2.44675 2.55799,-3.27528 1.14595,-0.97902 1.4684,-1.43281 1.59916,-2.25049 0.0901,-0.56331 0.27464,-1.0242 0.41016,-1.0242 0.13551,0 0.18768,-0.095 0.11593,-0.21107 -0.18183,-0.29421 0.0777,-0.60333 1.2237,-1.45755 0.80391,-0.59922 0.99218,-0.90874 0.99218,-1.63111 0,-0.77604 -0.10313,-0.91421 -0.79595,-1.06638 -1.21366,-0.26656 -1.44506,-0.94981 -1.0682,-3.15414 0.46987,-2.74841 0.37466,-2.66621 3.08801,-2.66621 h 2.34802 l 0.0811,-1.26754 c 0.0724,-1.13145 -0.006,-1.34372 -0.7276,-1.97714 -0.44478,-0.39029 -0.80869,-0.8357 -0.80869,-0.98981 0,-0.1541 0.56555,-0.44275 1.25677,-0.64143 1.88539,-0.54191 2.49931,-0.91541 4.14391,-2.52105 1.13625,-1.10934 1.69261,-1.46657 2.28407,-1.46657 0.76049,0 0.78192,-0.0358 0.78192,-1.30509 0,-1.10442 0.0878,-1.33294 0.57076,-1.48624 0.41075,-0.13036 0.68892,-0.026 0.99219,0.37211 0.29579,0.38834 0.53542,0.48201 0.80383,0.31421 0.32669,-0.20423 0.30742,-0.37986 -0.13229,-1.2056 -0.66436,-1.24758 -0.7461,-1.28647 -1.68442,-0.80124 -1.66514,0.86108 -2.49482,0.31268 -2.51922,-1.66515 l -0.0152,-1.23446 1.67788,-0.82599 c 1.58723,-0.78137 4.01066,-3.06374 4.01066,-3.77721 0,-0.24174 1.38437,-0.98119 2.24896,-1.20127 0.14552,-0.037 0.62177,-0.21718 1.05834,-0.40032 1.49707,-0.62803 3.88138,-0.65644 5.71921,-0.0682 0.92902,0.29738 2.34396,0.67881 3.14433,0.84763 1.97149,0.41584 3.14365,1.0392 3.09784,1.64744 -0.0424,0.56351 -0.79868,0.81499 -2.07511,0.69004 -0.72767,-0.0712 -0.89044,0.004 -0.89044,0.41317 0,0.74604 0.79892,1.16156 1.4507,0.75451 0.28957,-0.18084 0.73759,-0.3288 0.99561,-0.3288 0.25801,0 0.61263,-0.22981 0.78804,-0.51069 0.17542,-0.28089 0.65054,-0.54878 1.05584,-0.59532 0.57062,-0.0655 0.73215,-0.21894 0.71588,-0.67992 -0.025,-0.70772 0.60902,-0.79691 1.08057,-0.15202 0.29832,0.40797 0.43203,0.38689 1.67795,-0.26458 1.15654,-0.60474 1.67944,-0.70788 3.58872,-0.70788 1.70998,0 2.33589,-0.10096 2.66476,-0.42983 0.43294,-0.43294 1.02872,-0.42344 3.31214,0.0529 0.9072,0.18923 0.91662,0.18249 0.46302,-0.33109 -0.59757,-0.67659 -0.58936,-1.47686 0.0208,-2.02907 0.62309,-0.56389 1.14195,-0.55414 1.78136,0.0335 0.2821,0.25926 0.79013,0.49069 1.12896,0.51429 0.83604,0.0582 2.50354,1.4484 6.20735,5.1749 6.43083,6.47024 11.28118,13.51134 14.79896,21.48316 1.74633,3.95744 3.61168,9.4944 4.32486,12.83754 0.20178,0.94588 0.43375,1.99718 0.51548,2.33621 0.12112,0.50243 0.0611,0.58891 -0.32475,0.46761 -0.26035,-0.0819 -1.03122,0.0197 -1.71304,0.22567 -1.0126,0.30589 -1.72588,0.8745 -3.89408,3.10427 l -2.6544,2.72978 -0.009,1.73302 c -0.005,0.98386 -0.14577,1.87027 -0.32602,2.05052 -0.17463,0.17463 -0.23174,0.3175 -0.12692,0.3175 0.10483,0 -0.0524,0.47625 -0.34933,1.05833 -0.80901,1.5858 -1.35851,1.41295 -2.31313,-0.7276 -1.17273,-2.62961 -2.4105,-6.38057 -2.6468,-8.02089 -0.19647,-1.36383 -0.24787,-1.43951 -0.99705,-1.46787 -1.3341,-0.0505 -1.39177,-0.08 -1.6591,-0.84681 -0.14272,-0.40943 -0.83898,-1.25516 -1.54723,-1.87941 l -1.28773,-1.13499 -2.73152,-0.006 c -2.48386,-0.006 -2.79918,-0.0631 -3.47778,-0.63413 -0.55938,-0.47069 -1.06545,-0.62794 -2.02084,-0.62794 -1.2044,0 -1.34915,-0.0801 -2.62889,-1.45521 -1.5239,-1.63745 -2.23785,-1.86561 -2.23785,-0.71515 0,0.51281 0.3199,1.05242 1.04178,1.75732 0.57298,0.5595 1.18274,1.35757 1.35502,1.77349 0.37946,0.91612 1.36398,1.01061 2.3657,0.22705 0.8515,-0.66605 1.24519,-0.66171 1.46033,0.0161 0.0952,0.29991 0.4604,0.67621 0.81158,0.83622 0.35118,0.16001 0.63851,0.39087 0.63851,0.51304 0,0.12216 0.14883,0.19235 0.33073,0.15597 0.19764,-0.0395 0.36393,0.27774 0.41324,0.78843 0.13677,1.41654 -2.40757,4.63429 -3.92859,4.96836 -0.40109,0.0881 -0.94997,0.40478 -1.21972,0.70374 -0.72824,0.80709 -4.47608,2.61174 -5.55948,2.67699 l -0.94235,0.0567 -0.90074,-2.51355 c -0.4954,-1.38244 -1.31259,-3.11302 -1.81599,-3.84571 -0.5034,-0.7327 -0.94816,-1.62567 -0.98837,-1.98438 -0.0402,-0.35871 -0.25188,-0.85125 -0.47038,-1.09454 -0.21851,-0.24329 -0.73402,-1.10739 -1.1456,-1.92022 -0.64524,-1.2743 -1.32898,-2.00306 -1.87932,-2.00306 -0.4643,0 0.0106,1.55283 1.17323,3.83646 0.72761,1.42911 1.32292,2.81332 1.32292,3.07602 0,0.87914 1.83168,3.8224 3.13518,5.0378 0.92085,0.85862 1.34195,1.48199 1.473,2.18056 0.22437,1.19601 0.65712,1.38759 2.23877,0.99109 2.19565,-0.55044 3.39968,-0.61027 3.56586,-0.17721 0.18409,0.47974 -0.25291,1.75276 -1.51362,4.40928 -0.74658,1.57318 -1.31197,2.32834 -2.53919,3.39151 -1.70032,1.473 -4.35003,5.02886 -4.87302,6.53946 -0.26797,0.77403 -0.23875,1.33611 0.17425,3.35117 0.58781,2.86803 0.68141,5.47329 0.22714,6.3221 -0.17976,0.33589 -0.86414,0.95063 -1.52085,1.36609 -0.6567,0.41546 -1.51222,1.15419 -1.90115,1.64162 -0.63837,0.80005 -0.69893,1.06385 -0.62275,2.71283 0.076,1.64431 0.025,1.86816 -0.51024,2.24308 -0.32704,0.22907 -0.68784,0.35887 -0.80177,0.28846 -0.19763,-0.12214 -0.76037,1.50212 -0.76347,2.20361 -10e-4,0.32347 -1.62921,2.8014 -2.57713,3.92312 -1.21753,1.44074 -3.28223,2.22545 -5.85556,2.22545 -0.89262,0 -1.63206,-0.0298 -1.64319,-0.0662 z m 1.07857,-58.26203 c 0,-0.81025 0.62176,-1.73221 1.16695,-1.73039 0.30407,0.001 1.44581,0.31671 2.53722,0.70154 1.64408,0.57971 2.38955,0.69161 4.34711,0.65249 1.2995,-0.026 2.49604,-0.15786 2.65899,-0.2931 0.44225,-0.36704 1.00845,-2.83644 0.82131,-3.58207 -0.17667,-0.7039 0.0714,-0.66713 -4.30476,-0.63811 -1.8248,0.0121 -1.9353,-0.0837 -2.74562,-2.38056 -0.53355,-1.51234 -1.08822,-1.88507 -1.81987,-1.22293 -0.64498,0.58369 -0.67795,0.8834 -0.16014,1.45557 0.31446,0.34748 0.3253,0.54369 0.0595,1.07683 -0.57769,1.15875 -1.10624,0.94428 -2.09768,-0.85118 -0.50634,-0.91696 -0.99248,-1.96486 -1.08031,-2.32866 -0.0949,-0.39316 -0.61922,-0.94951 -1.29255,-1.37159 -0.62307,-0.39056 -1.48255,-1.07517 -1.90996,-1.52135 -0.80718,-0.84263 -1.31743,-1.01056 -1.61375,-0.53111 -0.2859,0.46261 1.21558,2.35241 2.43843,3.06904 1.27486,0.74712 1.32824,0.88474 0.70945,1.82913 l -0.4336,0.66176 -0.47162,-0.77551 c -0.25939,-0.42653 -1.04789,-1.08916 -1.75222,-1.47251 -0.70434,-0.38334 -1.51738,-1.05141 -1.80676,-1.48459 -0.70775,-1.05942 -1.28938,-1.19289 -2.34778,-0.53876 -0.62569,0.38669 -1.12474,0.50111 -1.69139,0.38778 -0.65063,-0.13013 -0.86302,-0.0501 -1.11446,0.41968 -0.17086,0.31925 -0.66739,0.8992 -1.10342,1.28879 -0.43602,0.38959 -1.11088,1.36146 -1.49969,2.15972 -0.6311,1.29572 -0.82043,1.47544 -1.76525,1.67562 -1.97602,0.41865 -2.29541,0.82956 -1.14617,1.47462 0.6643,0.37286 0.80466,0.34359 2.38125,-0.49654 1.55645,-0.8294 1.88823,-0.90112 4.67551,-1.01069 2.07194,-0.0815 3.09519,-0.0227 3.30729,0.18989 0.16892,0.16931 0.30712,0.86581 0.30712,1.54778 v 1.23994 l 1.48382,0.53205 c 0.8161,0.29263 1.6955,0.71065 1.95422,0.92893 0.5146,0.43416 2.45061,1.28456 2.97811,1.30813 0.1819,0.008 0.33072,-0.1582 0.33072,-0.36964 z m 23.65857,-5.33242 c 0.54822,-0.21037 0.53786,-1.40335 -0.0191,-2.19849 -0.36715,-0.52417 -0.38266,-0.71272 -0.0964,-1.17115 0.30029,-0.48083 0.26549,-0.59515 -0.29001,-0.95279 -1.10255,-0.70983 -2.08645,-1.80909 -2.08645,-2.33108 0,-0.27764 0.29766,-0.66411 0.66146,-0.85881 0.76769,-0.41086 0.81379,-0.60253 0.25619,-1.0653 -0.54428,-0.45171 -2.19144,0.0358 -2.98887,0.88463 -0.56393,0.60028 -0.56947,0.65813 -0.15856,1.6581 0.23417,0.56986 0.78697,1.41428 1.22845,1.87648 0.73458,0.76905 0.78722,0.9435 0.62042,2.05584 l -0.18228,1.21547 1.14149,0.51804 c 1.28355,0.5825 1.33268,0.59198 1.9136,0.36906 z m -15.22169,-4.18954 c 1.61482,-0.40436 1.75355,-0.3994 3.11878,0.11139 1.64733,0.61635 2.45694,0.67039 3.05386,0.20385 0.67411,-0.52687 0.13227,-1.41673 -1.36583,-2.24306 -1.17974,-0.65072 -1.33024,-0.83253 -1.33362,-1.61097 -0.003,-0.80041 -0.0677,-0.87012 -0.73142,-0.79375 -0.55326,0.0637 -0.73513,0.23333 -0.75902,0.7081 -0.0277,0.55157 -0.47152,1.07969 -0.91704,1.09136 -0.0851,0.002 -0.47295,-0.35314 -0.86193,-0.7897 -0.96194,-1.07961 -1.4986,-0.99954 -2.35168,0.35086 -0.73746,1.16736 -0.84845,1.58588 -0.77465,2.92113 0.0356,0.64472 0.13119,0.73712 0.63724,0.61621 0.32742,-0.0782 1.35581,-0.33267 2.28531,-0.56542 z m 8.91223,59.49687 c -0.53017,-0.53017 -0.54191,-2.90265 -0.0189,-3.81756 0.20797,-0.36381 0.38235,-1.21727 0.3875,-1.89659 0.0128,-1.69147 0.181,-2.01399 1.36504,-2.61804 0.56419,-0.28783 1.31238,-0.97729 1.66264,-1.53213 0.6009,-0.95189 1.43919,-1.35191 1.51338,-0.72217 0.0186,0.15765 0.0652,0.58429 0.10373,0.94809 0.0385,0.3638 -0.20699,1.4949 -0.5455,2.51354 -0.33851,1.01865 -0.91697,2.86412 -1.28547,4.10105 -0.3685,1.23692 -0.85934,2.51684 -1.09076,2.84427 -0.48956,0.69264 -1.49247,0.77872 -2.09166,0.17954 z m -34.36833,-67.68892 c -0.19636,-0.51172 0.0784,-1.51819 0.56921,-2.08502 0.37487,-0.43294 0.34368,-0.53148 -0.37688,-1.19063 -1.06063,-0.97024 -1.09174,-2.36805 -0.0655,-2.94439 0.90592,-0.5088 1.5466,-0.0493 1.5466,1.10925 0,0.53426 0.36066,1.27054 1.07753,2.19974 1.26426,1.63871 1.35306,2.74147 0.24539,3.04713 -1.20923,0.33368 -2.84454,0.25941 -2.99631,-0.13608 z m -46.48078,-15.22345 c 0,-0.13693 0.11907,-0.32255 0.26459,-0.41249 0.14552,-0.0899 0.26458,0.0221 0.26458,0.24897 0,0.22687 -0.11906,0.41249 -0.26458,0.41249 -0.14552,0 -0.26459,-0.11204 -0.26459,-0.24897 z"
         id="path2" /><path
         style="fill:#0288ca"
         d="m 360.2996,401.65619 c -2.59188,-0.20922 -7.98409,-1.19463 -11.31471,-2.06774 -19.85722,-5.20547 -36.6675,-18.71653 -45.91302,-36.90204 -5.6891,-11.1902 -8.12074,-22.06686 -7.7937,-34.861 0.12611,-4.93381 0.94638,-11.99163 1.51091,-13.00039 0.39705,-0.7095 1.20753,0.98623 1.14566,2.39701 -0.0634,1.44607 0.007,1.51567 3.38535,3.359 1.63786,0.89359 2.26497,1.09496 3.40999,1.09496 1.26914,0 1.51263,0.10101 2.55121,1.05833 0.63148,0.58209 1.39276,1.05834 1.69173,1.05834 1.22655,0 2.29638,0.72129 2.89066,1.94891 0.32316,0.66756 0.95137,1.51986 1.39603,1.89402 1.09296,0.91966 2.94401,1.84157 3.0513,1.51969 0.0478,-0.14327 0.26114,-0.48574 0.47417,-0.76104 0.37904,-0.48982 0.39601,-0.4893 0.79224,0.024 0.22269,0.28851 0.57182,1.08664 0.77582,1.77361 0.44023,1.48241 0.17928,2.78947 -0.82175,4.11594 -1.07958,1.43056 -1.38368,2.3976 -1.07265,3.41102 0.20293,0.66123 0.18657,1.05371 -0.0634,1.52079 -0.40974,0.76559 -0.18033,1.64444 0.66558,2.54986 0.34255,0.36664 1.35166,2.03351 2.24248,3.70416 1.7981,3.37219 2.5218,4.2425 4.37154,5.25713 0.69268,0.37996 1.50051,1.01792 1.79517,1.41768 0.62598,0.84928 1.18147,4.2703 1.21378,7.47524 0.0117,1.16417 0.20988,2.89057 0.44031,3.83646 0.23044,0.94588 0.40719,2.64616 0.3928,3.7784 -0.0149,1.16812 0.1257,2.42707 0.32494,2.91041 0.19311,0.4685 0.50712,1.59595 0.69778,2.50546 0.33269,1.58699 0.62556,2.02849 0.87755,1.32292 0.065,-0.1819 0.21762,-0.23761 0.33923,-0.12379 0.12162,0.11382 0.0839,0.72013 -0.0839,1.34736 -0.26826,1.00298 -0.22746,1.36964 0.33852,3.04254 1.06781,3.15618 2.95065,5.22105 5.82429,6.38737 2.39608,0.9725 3.90836,0.0592 1.73658,-1.04873 -0.56742,-0.28948 -1.2982,-0.95759 -1.62397,-1.48469 -0.55895,-0.9044 -0.57247,-1.04106 -0.2401,-2.42652 0.35215,-1.46796 0.3521,-1.46822 -0.38729,-2.0578 l -0.73949,-0.58965 0.59469,-1.63099 c 0.56911,-1.56084 0.57421,-1.64596 0.11875,-1.97901 -0.51233,-0.37462 -0.34067,-0.95745 0.28199,-0.95745 0.2449,0 0.38126,-0.27628 0.38126,-0.77248 0,-0.69204 0.13781,-0.81826 1.32324,-1.212 1.5365,-0.51034 1.87213,-1.19493 1.21183,-2.4718 -0.55259,-1.06859 -0.52772,-1.3436 0.10652,-1.17774 1.20076,0.314 1.75896,-0.11424 2.38425,-1.82913 0.33105,-0.90795 0.84824,-1.98399 1.1493,-2.3912 0.38719,-0.5237 0.57887,-1.26137 0.65499,-2.52062 0.12859,-2.1275 0.408,-2.50587 2.40013,-3.25009 0.81695,-0.3052 1.68881,-0.73842 1.93746,-0.96271 0.76542,-0.69043 1.29715,-2.83068 1.38369,-5.56949 0.0856,-2.70799 0.15593,-2.92367 1.8778,-5.75628 0.80069,-1.31719 0.84066,-2.73155 0.10367,-3.66849 -0.3016,-0.38342 -0.69487,-0.69714 -0.87392,-0.69714 -0.17905,0 -0.81344,-0.3588 -1.40976,-0.79734 -0.66219,-0.48698 -1.68661,-0.91364 -2.63181,-1.09611 -0.85118,-0.16433 -1.79512,-0.52152 -2.09765,-0.79376 -0.30252,-0.27224 -1.19549,-0.70172 -1.98437,-0.9544 -1.51554,-0.48544 -1.5126,-0.48191 -2.81944,-3.38092 -0.72246,-1.60265 -1.94035,-2.50154 -3.39376,-2.50482 -0.91325,-0.002 -1.23057,-0.19 -2.56876,-1.52136 -0.83974,-0.83544 -1.69123,-1.75421 -1.89218,-2.0417 -0.30065,-0.43011 -0.73327,-0.53793 -2.44195,-0.60863 -1.42295,-0.0589 -2.38047,-0.2489 -3.04208,-0.60371 -0.53103,-0.28478 -1.15762,-0.44406 -1.39243,-0.35395 -0.23481,0.0901 -0.58711,0.0309 -0.78289,-0.13161 -0.63203,-0.52453 -2.7274,0.44897 -3.22545,1.49852 -0.47086,0.99228 -1.05983,1.33931 -1.50963,0.88951 -0.38115,-0.38115 -1.39211,-0.38506 -2.09643,-0.008 -0.40382,0.21611 -0.69993,0.20859 -1.14401,-0.0291 -0.96799,-0.51805 -1.24309,-1.46625 -1.04347,-3.59653 0.1639,-1.74908 0.13373,-1.93238 -0.36172,-2.19754 -0.2973,-0.15911 -1.08416,-0.28929 -1.74857,-0.28929 -1.12042,0 -1.20802,-0.0492 -1.20802,-0.67885 0,-0.37337 0.11223,-0.88856 0.2494,-1.14486 0.13717,-0.2563 0.33111,-1.08191 0.43097,-1.83469 l 0.18156,-1.36868 -0.76169,0.004 c -0.97132,0.005 -1.24972,0.19841 -1.7816,1.23666 -1.31052,2.5582 -4.06402,2.02935 -4.95729,-0.95214 -0.28965,-0.96677 -0.26797,-1.40492 0.15601,-3.15308 0.42553,-1.75449 0.65266,-2.18719 1.67201,-3.18535 l 1.1796,-1.15506 1.77328,0.17473 c 1.42829,0.14074 1.83927,0.0952 2.1125,-0.234 0.40327,-0.48591 2.03029,-0.53807 3.45639,-0.1108 0.87547,0.2623 1.01384,0.41952 1.15696,1.31457 0.16512,1.0326 0.92144,1.73265 1.59335,1.47482 0.25943,-0.0996 0.27597,-0.49302 0.0736,-1.74985 -0.33997,-2.11103 -0.0969,-2.61164 1.98965,-4.09731 2.83583,-2.0192 2.94488,-2.12979 3.00868,-3.05134 0.0776,-1.12138 1.8754,-3.0191 3.65761,-3.86095 0.88619,-0.41861 1.40581,-0.86513 1.63156,-1.40202 0.22843,-0.54329 0.71806,-0.95891 1.57758,-1.33912 1.47774,-0.65367 1.97283,-0.69243 1.97283,-0.15444 0,0.43105 0.79794,0.53992 1.20386,0.16426 0.13824,-0.12795 0.7276,-0.38112 1.30968,-0.56262 1.06438,-0.33188 1.98438,-0.95776 1.98438,-1.34997 0,-0.11611 -0.59531,-0.14061 -1.32292,-0.0544 -1.28618,0.15233 -1.32292,0.13772 -1.32292,-0.52602 0,-0.37548 0.11907,-0.75628 0.26459,-0.84622 0.46087,-0.28483 0.28585,-1.14821 -0.26843,-1.32413 -0.29315,-0.0931 -0.46472,-0.27967 -0.38126,-0.41471 0.23403,-0.37867 1.17144,-0.29075 1.61353,0.15134 0.50731,0.50732 0.88824,0.50732 0.88824,0 0,-0.27103 0.27266,-0.39739 0.8599,-0.3985 0.47294,-9e-4 1.20092,-0.17949 1.61774,-0.39688 1.46248,-0.76273 1.63689,-0.35186 0.43278,1.01954 -0.98252,1.11903 -0.99568,1.4441 -0.0661,1.63491 0.40018,0.0822 1.15814,0.26302 1.68434,0.40192 1.32546,0.34988 1.29222,0.36978 1.29222,-0.77351 0,-0.76411 -0.14882,-1.12488 -0.58295,-1.41312 -0.57873,-0.38427 -0.57966,-0.39723 -0.12881,-1.79321 0.41411,-1.28222 0.41761,-1.46187 0.0398,-2.0385 -0.22789,-0.3478 -0.70373,-0.76422 -1.05741,-0.92537 -0.43786,-0.1995 -0.68669,-0.5756 -0.77976,-1.17858 -0.0752,-0.48706 -0.20162,-1.30229 -0.28097,-1.81162 -0.16882,-1.08353 -0.75816,-1.22049 -1.7078,-0.39687 -0.33558,0.29104 -0.88958,0.52917 -1.23111,0.52917 -0.54086,0 -0.62121,-0.12801 -0.62278,-0.99219 -0.002,-1.34712 -1.17643,-2.18281 -3.06638,-2.18281 -1.15494,0 -1.368,0.0889 -1.7443,0.7276 -0.23576,0.40018 -0.50606,1.32292 -0.60066,2.05052 -0.0946,0.72761 -0.22675,1.58864 -0.29368,1.91342 -0.12046,0.58459 -1.21416,1.3093 -2.49149,1.65091 -0.48069,0.12856 -0.772,0.49668 -1.06744,1.34895 -0.29256,0.84393 -0.56834,1.19547 -0.9849,1.25546 -0.71492,0.10296 -1.06116,-0.93631 -0.59939,-1.79914 0.3813,-0.71247 0.17178,-1.32682 -0.45259,-1.3271 -0.25923,-1.1e-4 -1.22615,-0.3573 -2.14873,-0.79375 -0.92257,-0.43645 -1.83205,-0.79354 -2.02107,-0.79354 -0.47202,0 -0.78294,-1.79064 -0.39259,-2.26097 0.69687,-0.83969 6.03381,-3.55986 6.98439,-3.55986 0.22768,0 0.41397,0.18927 0.41397,0.42061 0,0.49465 1.08509,1.44616 1.41599,1.24166 0.1254,-0.0775 0.081,-0.23179 -0.0987,-0.34285 -0.61457,-0.37983 0.0365,-0.85449 0.96533,-0.70376 1.11161,0.18039 1.22053,-0.38847 0.20214,-1.05575 l -0.69028,-0.45228 1.1533,-0.35026 c 0.83254,-0.25284 1.40867,-0.67836 2.07153,-1.52998 0.55062,-0.70742 1.21311,-1.24449 1.65475,-1.34149 0.85182,-0.18709 2.52716,0.54184 2.96503,1.29008 0.41621,0.71122 -1.15149,1.97645 -2.58118,2.08317 -1.33849,0.0999 -1.66945,0.74085 -0.38256,0.74085 0.65222,0 1.10622,0.21672 1.6559,0.79045 0.80992,0.84538 2.31191,1.29455 2.85032,0.85239 0.18031,-0.14807 0.62549,-0.3104 0.98929,-0.36072 0.60103,-0.0831 0.65498,-0.19423 0.59051,-1.21598 -0.0531,-0.84156 0.0262,-1.12448 0.31512,-1.12448 0.21233,0 0.45964,0.11907 0.54958,0.26459 0.29346,0.47483 1.42376,0.28855 1.73086,-0.28526 0.38824,-0.72544 0.18501,-1.17963 -0.72171,-1.61288 -0.463,-0.22124 -0.7787,-0.60498 -0.83484,-1.01476 -0.11245,-0.82089 -0.7727,-1.58502 -1.36956,-1.58502 -0.24848,0 -0.90124,-0.35719 -1.45058,-0.79375 -0.97037,-0.77115 -1.08007,-0.79375 -3.85254,-0.79375 -2.6841,0 -2.90213,0.0407 -3.66779,0.68498 -0.86976,0.73186 -1.06744,1.61564 -0.41717,1.86517 0.59814,0.22953 0.47858,0.78675 -0.30027,1.3994 -0.80818,0.63571 -1.15494,0.69351 -1.15494,0.1925 0,-0.19573 -0.23813,-0.57137 -0.52917,-0.83476 -0.73956,-0.66929 -0.70218,-1.92979 0.0661,-2.23036 0.32742,-0.12808 0.93567,-0.36524 1.35167,-0.527 0.62889,-0.24455 0.70147,-0.36026 0.43063,-0.68661 -0.47531,-0.5727 -1.17243,-0.48189 -2.06478,0.26897 -0.94824,0.7979 -1.00744,0.8046 -1.18284,0.13387 -0.11496,-0.43964 -0.28133,-0.49891 -0.99804,-0.35557 -1.29941,0.25988 -0.8365,-0.21132 2.2192,-2.25893 8.41376,-5.63802 17.83883,-9.44414 27.56239,-11.13051 9.4104,-1.63206 19.95377,-1.35168 29.10416,0.77397 7.86142,1.82622 15.76913,5.20238 22.6623,9.67557 3.92674,2.54818 5.87693,4.09696 5.55905,4.41483 -0.1752,0.1752 -0.46542,0.0758 -0.8648,-0.29633 -0.73822,-0.68775 -1.3404,-0.7117 -1.91554,-0.0762 -0.56493,0.62424 -0.55603,1.32557 0.0251,1.9812 0.45126,0.50908 0.44286,0.51805 -0.33073,0.35319 -2.24559,-0.47855 -3.19246,-0.49728 -3.54693,-0.0702 -0.27456,0.33083 -0.85441,0.42694 -2.57575,0.42694 -1.87502,0 -2.42532,0.1066 -3.52886,0.68363 -1.32142,0.69095 -1.85784,0.67444 -1.85784,-0.0572 0,-0.23966 -0.18606,-0.3643 -0.46302,-0.31019 -0.29226,0.0571 -0.46302,0.3326 -0.46302,0.74701 0,0.52158 -0.15147,0.67392 -0.73689,0.74114 -0.4053,0.0465 -0.88042,0.31443 -1.05584,0.59532 -0.18991,0.3041 -0.61428,0.51069 -1.04904,0.51069 -0.40156,0 -0.7301,0.11907 -0.7301,0.26459 0,0.40667 -0.95284,0.31362 -1.32012,-0.12893 -0.54716,-0.65928 -0.13528,-1.20726 0.77115,-1.02597 1.11728,0.22345 2.13647,-0.0828 2.13647,-0.64206 0,-0.58177 -1.27915,-1.2441 -3.175,-1.64399 -0.80037,-0.16882 -2.21531,-0.55025 -3.14433,-0.84763 -1.24672,-0.39907 -2.11294,-0.50567 -3.30729,-0.40703 -1.84423,0.15232 -5.44591,1.45518 -5.66649,2.04977 -0.395,1.06477 -2.49791,3.03355 -4.06339,3.80422 l -1.67788,0.82599 0.0152,1.23446 c 0.0244,1.97783 0.85408,2.52623 2.51922,1.66515 0.93832,-0.48523 1.02006,-0.44634 1.68442,0.80124 0.43971,0.82574 0.45898,1.00137 0.13229,1.2056 -0.26841,0.1678 -0.50804,0.0741 -0.80383,-0.31421 -0.30327,-0.39815 -0.58144,-0.50247 -0.99219,-0.37211 -0.483,0.1533 -0.57076,0.38182 -0.57076,1.48624 0,1.28443 -0.0131,1.30509 -0.82421,1.30509 -0.59981,0 -1.05005,0.24606 -1.65365,0.90373 -1.3914,1.51603 -2.73967,2.45141 -4.19957,2.9135 -0.7658,0.2424 -1.56629,0.50061 -1.77886,0.5738 -0.28278,0.0974 -0.11913,0.37802 0.60982,1.04582 0.91949,0.84237 0.99009,1.00967 0.91566,2.16972 l -0.0806,1.25697 h -2.34802 c -2.71335,0 -2.61814,-0.0822 -3.08801,2.66621 -0.37686,2.20433 -0.14546,2.88758 1.0682,3.15414 0.6962,0.15291 0.79595,0.28856 0.79595,1.08236 0,0.75773 -0.17227,1.02722 -1.04368,1.63262 -1.05637,0.7339 -1.4341,1.36315 -1.73509,2.89045 -0.11408,0.57888 -0.60897,1.22086 -1.58188,2.05204 -0.94456,0.80697 -1.79142,1.89166 -2.5441,3.25861 -1.11178,2.01911 -1.12889,2.08951 -1.17328,4.82711 -0.0248,1.52797 -0.13575,3.44667 -0.24664,4.26377 l -0.2016,1.48565 1.34672,1.48709 c 0.7407,0.8179 1.42204,1.78719 1.51409,2.15396 0.0926,0.36889 0.9994,1.38475 2.02939,2.27344 1.47406,1.27184 1.97792,1.56687 2.41832,1.41601 0.30596,-0.10481 1.40441,-0.21896 2.441,-0.25367 1.32282,-0.0443 2.42575,-0.27956 3.69951,-0.78914 1.63388,-0.65366 1.88121,-0.68913 2.48092,-0.35581 0.36636,0.20363 0.78365,0.6352 0.92729,0.95905 0.20435,0.4607 0.4816,0.58882 1.27417,0.58882 2.07214,0 2.36759,0.64454 1.73632,3.78786 l -0.30021,1.49486 1.07191,1.39354 c 1.32395,1.72119 1.52746,2.19688 2.03469,4.75582 0.53252,2.68657 0.51488,3.00351 -0.25981,4.66763 -0.8605,1.84846 -0.86122,3.50268 -0.002,5.37869 0.36108,0.7887 0.89898,2.61879 1.19534,4.06686 0.3362,1.64277 0.88694,3.31024 1.46454,4.43413 0.50914,0.99069 1.01421,2.41944 1.12237,3.175 l 0.19667,1.37374 1.58489,0.0816 c 1.86262,0.096 3.58717,-0.32539 4.93184,-1.205 1.29359,-0.84619 3.54902,-4.15693 3.78552,-5.55675 0.14887,-0.8812 0.36847,-1.20554 1.11406,-1.64544 l 0.92863,-0.54791 -0.0846,-1.83179 c -0.0995,-2.15477 0.29836,-2.87972 2.34968,-4.28095 0.69288,-0.47329 1.40016,-1.04548 1.57174,-1.27154 0.61307,-0.80773 0.63103,-2.18483 0.0712,-5.45798 -0.31242,-1.82656 -0.49611,-3.70437 -0.40821,-4.17291 0.2327,-1.2404 2.79456,-4.78298 5.00409,-6.91972 1.62681,-1.57322 2.05877,-2.19069 2.86894,-4.10104 1.22164,-2.88059 1.31834,-3.22719 1.02897,-3.68833 -0.20519,-0.32698 -0.47651,-0.33137 -1.91219,-0.0309 -0.9202,0.19255 -2.08339,0.36402 -2.58487,0.38104 -0.85477,0.029 -0.93254,-0.0402 -1.24356,-1.10592 -0.22435,-0.76876 -0.71711,-1.48175 -1.5219,-2.20205 -1.20814,-1.08131 -3.06963,-4.09046 -3.06963,-4.96215 0,-0.2627 -0.59531,-1.64691 -1.32292,-3.07602 -1.21321,-2.38292 -1.63649,-3.83646 -1.1172,-3.83646 0.33378,0 1.38179,0.80331 1.38179,1.05916 0,0.12947 0.40183,0.92639 0.89295,1.77093 0.49112,0.84454 0.97994,1.83319 1.08626,2.19699 0.10632,0.3638 0.59575,1.25677 1.08761,1.98438 0.49186,0.7276 1.29962,2.45401 1.79502,3.83645 l 0.90074,2.51355 0.94235,-0.0567 c 1.09065,-0.0657 5.17573,-2.03908 5.66467,-2.73645 0.18208,-0.25971 0.67142,-0.54695 1.08743,-0.63832 1.44112,-0.31653 4.00547,-3.44012 4.00547,-4.87901 0,-0.67245 -0.17308,-0.89514 -1.0391,-1.33695 -0.5715,-0.29156 -1.1153,-0.77023 -1.20845,-1.06371 -0.2115,-0.66638 -0.60883,-0.66759 -1.45662,-0.004 -1.00172,0.78356 -1.98624,0.68907 -2.3657,-0.22705 -0.17228,-0.41592 -0.78204,-1.21399 -1.35502,-1.77349 -0.72188,-0.7049 -1.04178,-1.24451 -1.04178,-1.75732 0,-1.15046 0.71395,-0.9223 2.23785,0.71515 1.27974,1.37508 1.42449,1.45521 2.62889,1.45521 0.97354,0 1.46025,0.15623 2.06068,0.66146 0.72892,0.61335 0.9875,0.66146 3.55526,0.66146 h 2.76916 l 1.28597,1.20288 c 0.70729,0.66158 1.35884,1.4932 1.4479,1.84805 0.16313,0.64993 0.86424,0.96906 1.86361,0.84827 0.43816,-0.053 0.55238,0.16149 0.73246,1.37522 0.24466,1.64892 1.48883,5.41044 2.65301,8.02089 1.01507,2.27609 1.54056,2.36104 2.45501,0.39688 0.47362,-1.01731 0.64739,-1.84513 0.64928,-3.09312 l 0.003,-1.70406 2.57968,-2.66157 c 1.89823,-1.95848 2.89421,-2.77828 3.77032,-3.10338 0.65484,-0.24299 1.33639,-0.45135 1.51456,-0.46302 1.36761,-0.0895 2.45672,10.13624 1.92804,18.10275 -1.23164,18.55959 -8.92538,35.1241 -22.20363,47.80411 -11.46156,10.94517 -26.12403,17.72553 -42.22543,19.52628 -2.21031,0.24719 -11.70478,0.30125 -14.41979,0.0821 z m 42.98868,-43.53384 c 0.23142,-0.32743 0.72226,-1.60735 1.09076,-2.84427 0.3685,-1.23693 0.96827,-3.13771 1.33283,-4.22396 1.07056,-3.18994 0.35085,-4.9449 -1.09113,-2.66065 -0.36557,0.5791 -1.12629,1.2884 -1.69048,1.57623 -1.18404,0.60405 -1.3522,0.92657 -1.36504,2.61804 -0.005,0.67932 -0.17953,1.53278 -0.3875,1.89659 -0.52301,0.91491 -0.51127,3.28739 0.0189,3.81756 0.59919,0.59918 1.6021,0.5131 2.09166,-0.17954 z m -33.74064,-67.30753 c 0.56548,-0.1131 0.92911,-0.38412 1.09272,-0.81443 0.20873,-0.54901 0.0707,-0.86808 -0.9284,-2.1456 -0.7494,-0.95825 -1.20414,-1.82575 -1.25809,-2.40003 -0.11325,-1.20558 -0.74259,-1.58602 -1.64526,-0.99457 -0.99924,0.65473 -0.93486,1.83074 0.1547,2.8259 0.80648,0.73661 0.82314,0.79168 0.38557,1.27519 -0.25152,0.27793 -0.52734,0.93681 -0.61292,1.46419 l -0.1556,0.95885 h 1.05988 c 0.58293,0 1.44126,-0.0763 1.9074,-0.1695 z m 12.54993,17.41878 c -0.59866,-0.24653 -1.30016,-0.62683 -1.55889,-0.84511 -0.25872,-0.21828 -1.13812,-0.63823 -1.95422,-0.93321 l -1.48382,-0.53634 0.0752,-1.20969 c 0.10991,-1.76794 -0.15678,-1.89554 -3.70876,-1.77442 -2.67208,0.0911 -3.10682,0.17635 -4.19489,0.82245 -1.30905,0.77731 -2.89561,0.95136 -3.37765,0.37054 -0.37969,-0.4575 0.10918,-0.97266 0.92304,-0.97266 1.29125,0 1.96657,-0.50377 2.60228,-1.94123 0.34406,-0.77797 0.97749,-1.71062 1.40762,-2.07256 0.43014,-0.36193 0.92721,-0.92927 1.10462,-1.26075 0.26369,-0.49271 0.46922,-0.57335 1.12636,-0.44192 0.56665,0.11333 1.0657,-10e-4 1.69139,-0.38778 1.05419,-0.65153 1.64009,-0.52061 2.33657,0.52209 0.28322,0.42401 1.11666,1.11094 1.85209,1.52652 0.8421,0.47586 1.48406,1.07047 1.734,1.60613 0.44839,0.96094 0.79375,1.11255 0.79375,0.34845 0,-0.28246 0.11907,-0.58714 0.26459,-0.67708 0.54632,-0.33765 0.22845,-0.89693 -0.87847,-1.54563 -1.22285,-0.71663 -2.72433,-2.60643 -2.43843,-3.06904 0.29632,-0.47945 0.80657,-0.31152 1.61375,0.53111 0.42741,0.44618 1.28689,1.13079 1.90996,1.52135 0.67333,0.42208 1.19762,0.97843 1.29255,1.37159 0.26846,1.11192 1.96277,3.96875 2.35377,3.96875 0.2024,0 0.56503,-0.30071 0.80585,-0.66824 0.40501,-0.61813 0.40547,-0.70401 0.006,-1.14531 -0.56618,-0.62562 -0.54468,-0.91265 0.11291,-1.50776 0.73165,-0.66214 1.28632,-0.28941 1.81987,1.22293 0.81032,2.29686 0.92082,2.39267 2.74562,2.38056 4.37612,-0.029 4.12809,-0.0658 4.30476,0.63811 0.18714,0.74563 -0.37906,3.21503 -0.82131,3.58207 -0.16295,0.13524 -1.35949,0.26713 -2.65899,0.2931 -1.95756,0.0391 -2.70303,-0.0728 -4.34711,-0.65249 -1.09141,-0.38483 -2.23315,-0.70053 -2.53722,-0.70154 -0.54519,-0.002 -1.16695,0.92014 -1.16695,1.73039 0,0.48792 -0.38872,0.46717 -1.74994,-0.0934 z m 23.49491,-5.6081 -1.14149,-0.51804 0.18228,-1.21547 c 0.1668,-1.11234 0.11416,-1.28679 -0.62042,-2.05584 -0.44148,-0.4622 -0.99428,-1.30662 -1.22845,-1.87648 -0.41091,-0.99997 -0.40537,-1.05782 0.15856,-1.6581 0.79743,-0.84883 2.44459,-1.33634 2.98887,-0.88463 0.5576,0.46277 0.5115,0.65444 -0.25619,1.0653 -0.3638,0.1947 -0.66146,0.58117 -0.66146,0.85881 0,0.52199 0.9839,1.62125 2.08645,2.33108 0.5555,0.35764 0.5903,0.47196 0.29001,0.95279 -0.28629,0.45843 -0.27078,0.64698 0.0964,1.17115 0.55693,0.79514 0.56729,1.98812 0.0191,2.19849 -0.58092,0.22292 -0.63005,0.21344 -1.9136,-0.36906 z m -16.23064,-3.87127 c -0.023,-0.41715 -0.0207,-0.98773 0.005,-1.26796 0.0754,-0.81636 1.45,-2.79679 1.94162,-2.79731 0.24729,-2.6e-4 0.79585,0.37 1.21902,0.82279 0.6637,0.71016 0.8467,0.7819 1.33197,0.52219 0.35548,-0.19024 0.53982,-0.51765 0.50078,-0.88941 -0.0494,-0.47026 0.0917,-0.60585 0.70312,-0.67565 0.72173,-0.0824 0.75593,-0.0424 0.60579,0.70826 -0.14871,0.74357 -0.0639,0.84933 1.29745,1.61762 1.61589,0.91195 2.17755,1.78837 1.49032,2.3255 -0.59692,0.46654 -1.40653,0.4125 -3.05386,-0.20385 -1.36523,-0.51079 -1.50396,-0.51575 -3.11878,-0.11139 -0.9295,0.23275 -1.95789,0.48719 -2.28531,0.56542 -0.50605,0.12091 -0.6016,0.0285 -0.63724,-0.61621 z M 319.32021,276.7254 c -0.51831,-0.13983 -0.5651,-0.2243 -0.2631,-0.47493 0.20203,-0.16767 0.69408,-0.38687 1.09345,-0.4871 0.42287,-0.10614 0.72612,-0.36364 0.72613,-0.61658 1e-5,-0.56721 1.76095,-1.98646 1.99494,-1.60786 0.0952,0.15407 0.45921,0.38889 0.80888,0.52183 0.50249,0.19105 0.63575,0.43392 0.63575,1.15869 0,1.15305 -0.40569,1.4239 -1.01173,0.67546 l -0.46779,-0.57769 -0.78159,0.64956 c -0.89618,0.74479 -1.82807,1.00328 -2.73494,0.75862 z"
         id="path1" /></g></g></svg>
